# xmcd
#
# Track frame offsets:
#	150
#	25803
#	50800
#	78071
#	110431
#	140883
#	172426
#	200655
#	215401
#	231064
#	252382
#	274924
#	297846
#	312089
#
# Disc length: 4728 seconds
#
# Revision: 0
# Processed by: cddbd v1.5.2PL0 Copyright (c) Steve Scherf et al.
# Submitted via: EasyCDDAExtractor 12.0.1.1
#
DISCID=d912760e
DTITLE=Roberto Roena - Exitos Platino
DYEAR=1900
DGENRE=Salsa
TTITLE0=Desengano
TTITLE1=Guaguanco del Adios
TTITLE2=Marejada Feliz
TTITLE3=Lamento de Concepcion
TTITLE4=El Aplauso
TTITLE5=Traicion
TTITLE6=Tu Loco, Loco y yo tranquilo
TTITLE7=La Distancia
TTITLE8=Cuicui
TTITLE9=Vigilandote
TTITLE10=Parece Mentira
TTITLE11=Que se Sepa
TTITLE12=Ponte Duro
TTITLE13=Como te hago Entender
EXTD=
EXTT0=
EXTT1=
EXTT2=
EXTT3=
EXTT4=
EXTT5=
EXTT6=
EXTT7=
EXTT8=
EXTT9=
EXTT10=
EXTT11=
EXTT12=
EXTT13=
PLAYORDER=
